# xmcd
#
# Track frame offsets:
#	150
#	14076
#	28359
#	41711
#	57367
#	73227
#	95024
#	112348
#	126876
#	145164
#	158387
#
# Disc length: 2331 seconds
#
# Revision: 0
# Processed by: cddbd v1.5.2PL0 Copyright (c) Steve Scherf et al.
# Submitted via: audiograbber 1.83.01
#
DISCID=a709190b
DTITLE=Blake Shelton - Texoma Shore
DYEAR=2017
DGENRE=Country
TTITLE0=I'll Name the Dogs
TTITLE1=At ôhe House
TTITLE2=Beside You Babe
TTITLE3=Why Me
TTITLE4=Money
TTITLE5=Turnin' Me On
TTITLE6=The Wave
TTITLE7=Got the T-Shirt
TTITLE8=Hangover Due
TTITLE9=When the Wine Wears Off
TTITLE10=I Lived It
EXTD=
EXTT0=
EXTT1=
EXTT2=
EXTT3=
EXTT4=
EXTT5=
EXTT6=
EXTT7=
EXTT8=
EXTT9=
EXTT10=
PLAYORDER=
